<?xml version="1.0" encoding="UTF-8"?>
<svg width="683px" height="467px" viewBox="0 0 683 467" version="1.1" xmlns="http://www.w3.org/2000/svg" xmlns:xlink="http://www.w3.org/1999/xlink">
    <title>plot</title>
    <g id="Schematic" stroke="none" stroke-width="1" fill="none" fill-rule="evenodd">
        <g id="figure" transform="translate(-0, -79.166)">
            <g id="plot" transform="translate(0, 80)">
                <g id="plot-left" transform="translate(0, 0)">
                    <line x1="94.5" y1="334.666044" x2="110.5" y2="334.666044" id="Path-Copy" stroke="#333333" stroke-linejoin="round"></line>
                    <line x1="111.5" y1="72.6660441" x2="94.5" y2="72.6660441" id="Path-Copy-2" stroke="#333333" stroke-linejoin="round"></line>
                    <g id="y-label" transform="translate(46, 0)" fill="#000000" font-weight="normal">
                        <text id="𝛼" font-family="STIXTwoMath-Regular, STIX Two Math" font-size="20">
                            <tspan x="27" y="76.1660441">𝛼</tspan>
                        </text>
                        <text id="𝛼---𝛽" fill-rule="nonzero" font-family="STIXTwoMath-Regular, STIX Two Math" font-size="20">
                            <tspan x="0.6" y="339.166044">𝛼 - 𝛽</tspan>
                        </text>
                        <text id="RRi-(ms)" fill-rule="nonzero" font-family="Verdana" font-size="16">
                            <tspan x="13.8087034" y="16">RRi</tspan>
                            <tspan x="7.91417214" y="35">(ms)</tspan>
                        </text>
                    </g>
                    <path d="M23,40.2303196 C38.3333333,28.0422411 46,18.8880192 46,12.7676539 C46,3.58710605 40.2806023,0 34.0445301,0 C29.8871487,0 26.2056386,2.22772281 23,6.68316844 C19.6916576,2.22772281 16.0511488,0 12.0784738,0 C6.11946137,0 0,3.77467864 0,12.7676539 C0,18.7629708 7.66666667,27.9171927 23,40.2303196 Z" id="Path-3" fill="#F44336"></path>
                </g>
                <g id="plot-bottom" transform="translate(163.129, 406.0771)">
                    <line x1="69.3709841" y1="0.588905491" x2="69.3709841" y2="26.5889055" id="Path-Copy-4" stroke="#333333" stroke-linejoin="round" stroke-dasharray="5"></line>
                    <line x1="199.370984" y1="0.588905491" x2="199.370984" y2="26.5889055" id="Path-Copy-5" stroke="#333333" stroke-linejoin="round" stroke-dasharray="5"></line>
                    <g id="x-label" transform="translate(0, 7.9229)" fill="#000000" font-weight="normal">
                        <g id="x-values">
                            <g id="Rest" transform="translate(0, 0)">
                                <text id="𝛼-Copy" font-family="STIXTwoMath-Regular, STIX Two Math" font-size="20">
                                    <tspan x="11.8709841" y="41.1660441">𝛼</tspan>
                                </text>
                                <text fill-rule="nonzero" font-family="Verdana" font-size="16">
                                    <tspan x="0.546875" y="16">Rest</tspan>
                                </text>
                            </g>
                            <g id="Exercise" transform="translate(98, 0)" fill-rule="nonzero">
                                <text id="𝛽-Copy" font-family="STIXTwoMath-Regular, STIX Two Math" font-size="20">
                                    <tspan x="26.8709841" y="41.1660441">𝛽</tspan>
                                </text>
                                <text font-family="Verdana" font-size="16">
                                    <tspan x="0.82421875" y="16">Exercise</tspan>
                                </text>
                            </g>
                            <g id="Recovery" transform="translate(230, 0)" fill-rule="nonzero">
                                <text id="-𝑐𝛽" font-family="STIXTwoMath-Regular, STIX Two Math" font-size="20">
                                    <tspan x="19.8709841" y="41.1660441">-𝑐𝛽</tspan>
                                </text>
                                <text font-family="Verdana" font-size="16">
                                    <tspan x="0.32421875" y="16">Recovery</tspan>
                                </text>
                            </g>
                        </g>
                        <text id="Time-(min)" fill-rule="nonzero" font-family="Verdana" font-size="16">
                            <tspan x="456.328125" y="22">Time</tspan>
                            <tspan x="453.695312" y="41">(min)</tspan>
                        </text>
                    </g>
                    <g id="Clock" transform="translate(396.871, 14.0889)" stroke="#333333" stroke-width="3">
                        <path d="M21.9998289,22.3138916 C21.9973667,17.5103071 21.9949044,12.7067226 21.9924422,7.90313802" id="Path-4" stroke-linecap="round"></path>
                        <path d="M22.2356106,23 C24.9128262,25.5742951 27.5900419,28.1485901 30.2672575,30.7228852" id="Path-5" stroke-linecap="round"></path>
                        <circle id="Oval" cx="22" cy="22" r="22"></circle>
                    </g>
                </g>
                <g id="plot-inside" transform="translate(109.5859, 55.166)">
                    <g id="Time-parameters" transform="translate(118.4141, 278.9111)">
                        <line x1="4.5" y1="0.567873152" x2="4.5" y2="26.6035874" id="Path-Copy-6" stroke="#333333" stroke-linejoin="round" stroke-dasharray="5"></line>
                        <line x1="134.5" y1="0.588905491" x2="134.5" y2="28.5889055" id="Path-Copy-7" stroke="#333333" stroke-linejoin="round" stroke-dasharray="5"></line>
                        <path id="Path" d="M5,30.5889055 L5,34.088 L134,34.088 L134,30.5889055 L135,30.5889055 L135,38.5889055 L134,38.5889055 L134,35.088 L5,35.088 L5,38.5889055 L4,38.5889055 L4,30.5889055 L5,30.5889055 Z" fill="#333333" fill-rule="nonzero"></path>
                        <rect id="Rectangle-Copy-3" fill="#FFFFFF" x="59" y="25.0889055" width="21" height="20"></rect>
                        <text id="𝜏" fill-rule="nonzero" font-family="STIXTwoMath-Regular, STIX Two Math" font-size="20" font-weight="normal" fill="#000000">
                            <tspan x="0" y="60.0889055">𝜏</tspan>
                        </text>
                        <text id="𝛿" fill-rule="nonzero" font-family="STIXTwoMath-Regular, STIX Two Math" font-size="20" font-weight="normal" fill="#000000">
                            <tspan x="64" y="42.0889055">𝛿</tspan>
                        </text>
                    </g>
                    <g id="Horizontal-line-(beta)" transform="translate(0, 278.1982)" stroke="#333333" stroke-linejoin="round">
                        <line x1="0.914089124" y1="1.30183041" x2="184.914089" y2="1.30183041" id="Path-Copy-9"></line>
                        <line x1="181.914089" y1="1.30183041" x2="518.914089" y2="1.30183041" id="Path-Copy-3"></line>
                    </g>
                    <g id="Exercise-drop" transform="translate(36.5431, 19.4724)">
                        <line x1="23.3709841" y1="0.0276428838" x2="23.3709841" y2="260.027643" id="Path" stroke="#333333" stroke-linejoin="round" stroke-dasharray="6"></line>
                        <rect id="Rectangle-Copy-2" fill="#FFFFFF" x="13.8709841" y="102.527643" width="23" height="38"></rect>
                        <text id="Exercise-Drop" fill-rule="nonzero" font-family="Verdana" font-size="12" font-weight="normal" fill="#000000">
                            <tspan x="0.118164062" y="116.361599">Exercise</tspan>
                            <tspan x="10.4365234" y="131.361599">Drop</tspan>
                        </text>
                    </g>
                    <g id="Baseline-level" transform="translate(1.9141, 0)">
                        <line x1="571" y1="17.5" x2="-1.01033765e-13" y2="17.5" id="Path-Copy-8" stroke="#333333" stroke-linejoin="round" stroke-dasharray="6"></line>
                        <rect id="Rectangle-Copy" fill="#FFFFFF" x="407.5" y="0" width="62" height="33"></rect>
                        <text id="Baseline-Level" fill-rule="nonzero" font-family="Verdana" font-size="12" font-weight="normal" fill="#000000">
                            <tspan x="413.418945" y="14">Baseline</tspan>
                            <tspan x="422.867187" y="29">Level</tspan>
                        </text>
                    </g>
                    <g id="Proportional-Recovery" transform="translate(332.5431, 62.2594)">
                        <line x1="37.3709841" y1="217.240568" x2="37.3709841" y2="0.2405678" id="Path" stroke="#333333" stroke-linejoin="round" stroke-dasharray="6"></line>
                        <rect id="Rectangle" fill="#FFFFFF" x="25.8709841" y="122.740568" width="23" height="40"></rect>
                        <text id="Proportional-Recover" fill-rule="nonzero" font-family="Verdana" font-size="12" font-weight="normal" fill="#000000">
                            <tspan x="0.540039062" y="138.574524">Proportional</tspan>
                            <tspan x="9.49316406" y="153.574524">Recovery</tspan>
                        </text>
                    </g>
                    <polyline id="Path" stroke="#3B77C3" stroke-width="3" stroke-linejoin="round" points="0.559480763 16.6856556 0.784578965 16.6856556 1.02291824 16.6856556 1.24801644 16.6856556 1.47311464 16.6856556 1.71145392 16.6856556 1.93655212 16.6856556 2.17489139 16.6856556 2.39998959 16.6856556 2.63832887 16.6856556 2.86342707 16.6856556 3.10176634 16.6856556 3.32686455 16.6856556 3.56520382 16.6856556 3.79030202 16.6856556 4.02864129 16.6856556 4.2537395 16.6856556 4.49207877 16.6856556 4.71717697 16.6856556 4.95551625 16.6856556 5.18061445 16.6856556 5.41895372 16.6856556 5.64405192 16.6856556 5.86915013 16.6856556 6.1074894 16.6856556 6.3325876 16.6856556 6.57092687 16.6856556 6.79602508 16.6856556 7.03436435 16.6856556 7.25946255 16.6856556 7.49780183 16.6856556 7.72290003 16.6856556 7.9612393 16.6856556 8.1863375 16.6856556 8.42467678 16.6856556 8.64977498 16.6856556 8.88811425 16.6856556 9.11321246 16.6856556 9.35155173 16.6856556 9.57664993 16.6856556 9.8149892 16.6856556 10.0400874 16.6856556 10.2651856 16.6856556 10.5035249 16.6856556 10.7286231 16.6856556 10.9669624 16.6856556 11.1920606 16.6856556 11.4303998 16.6856556 11.655498 16.6856556 11.8938373 16.6856556 12.1189355 16.6856556 12.3572748 16.6856556 12.582373 16.6856556 12.8207123 16.6856556 13.0458105 16.6856556 13.2841497 16.6856556 13.5092479 16.6856556 13.7475872 16.6856556 13.9726854 16.6856556 14.1977836 16.6856556 14.4361229 16.6856556 14.6612211 16.6856556 14.8995604 16.6856556 15.1246586 16.6856556 15.3629978 16.6856556 15.588096 16.6856556 15.8264353 16.6856556 16.0515335 16.6856556 16.2898728 16.6856556 16.514971 16.6856556 16.7533103 16.6856556 16.9784085 16.6856556 17.2167477 16.6856556 17.4418459 16.6856556 17.6801852 16.6856556 17.9052834 16.6856556 18.1436227 16.6856556 18.3687209 16.6856556 18.5938191 16.6856556 18.8321584 16.6856556 19.0572566 16.6856556 19.2955958 16.6856556 19.5206941 16.6856556 19.7590333 16.6856556 19.9841315 16.6856556 20.2224708 16.6856556 20.447569 16.6856556 20.6859083 16.6856556 20.9110065 16.6856556 21.1493458 16.6856556 21.374444 16.6856556 21.6127832 16.6856556 21.8378814 16.6856556 22.0762207 16.6856556 22.3013189 16.6856556 22.5396582 16.6856556 22.7647564 16.6856556 22.9898546 16.6856556 23.2281939 16.6856556 23.4532921 16.6856556 23.6916313 16.6856556 23.9167295 16.6856556 24.1550688 16.6856556 24.380167 16.6856556 24.6185063 16.6856556 24.8436045 16.6723945 25.0819438 16.6723945 25.307042 16.6723945 25.5453812 16.6723945 25.7704794 16.6723945 26.0088187 16.6723945 26.2339169 16.6723945 26.4722562 16.6723945 26.6973544 16.6723945 26.9356937 16.6723945 27.1607919 16.6723945 27.3858901 16.6723945 27.6242293 16.6723945 27.8493275 16.6723945 28.0876668 16.6723945 28.312765 16.6723945 28.5511043 16.6723945 28.7762025 16.6723945 29.0145418 16.6723945 29.23964 16.6856556 29.4779792 16.6856556 29.7030774 16.6856556 29.9414167 16.6856556 30.1665149 16.6856556 30.4048542 16.6856556 30.6299524 16.6856556 30.8682917 16.6856556 31.0933899 16.6856556 31.3317291 16.6856556 31.5568273 16.6856556 31.7819255 16.6856556 32.0202648 16.6856556 32.245363 16.6856556 32.4837023 16.6856556 32.7088005 16.6856556 32.9471398 16.6856556 33.172238 16.6856556 33.4105772 16.6856556 33.6356755 16.6856556 33.8740147 16.6856556 34.0991129 16.6856556 34.3374522 16.6856556 34.5625504 16.6856556 34.8008897 16.6856556 35.0259879 16.6856556 35.2643272 16.6856556 35.4894254 16.6856556 35.7145236 16.6856556 35.9528628 16.6856556 36.177961 16.6856556 36.4163003 16.6856556 36.6413985 16.6856556 36.8797378 16.6856556 37.104836 16.6856556 37.3431753 16.6856556 37.5682735 16.6856556 37.8066127 16.6856556 38.0317109 16.6856556 38.2700502 16.6856556 38.4951484 16.6856556 38.7334877 16.6856556 38.9585859 16.6856556 39.1969252 16.6856556 39.4220234 16.6856556 39.6603626 16.6856556 39.8854608 16.6856556 40.110559 16.6856556 40.3488983 16.6856556 40.5739965 16.6856556 40.8123358 16.6856556 41.037434 16.6856556 41.2757733 16.6856556 41.5008715 16.6989167 41.7392107 16.6989167 41.9643089 16.6989167 42.2026482 16.6989167 42.4277464 16.6989167 42.6660857 16.6989167 42.8911839 16.6989167 43.1295232 16.6989167 43.3546214 16.6989167 43.5929606 16.6989167 43.8180588 16.6989167 44.0563981 16.6989167 44.2814963 16.6989167 44.5065945 16.6989167 44.7449338 16.6989167 44.970032 16.6989167 45.2083713 16.6989167 45.4334695 16.6989167 45.6718087 16.7121778 45.8969069 16.7121778 46.1352462 16.7121778 46.3603444 16.7121778 46.5986837 16.7121778 46.8237819 16.7121778 47.0621212 16.7121778 47.2872194 16.7121778 47.5255586 16.7121778 47.7506569 16.7121778 47.9889961 16.7121778 48.2140943 16.7121778 48.4524336 16.7254389 48.6775318 16.7254389 48.90263 16.7254389 49.1409693 16.7254389 49.3660675 16.7254389 49.6044068 16.7254389 49.829505 16.7254389 50.0678442 16.7254389 50.2929424 16.7387 50.5312817 16.7387 50.7563799 16.7387 50.9947192 16.7387 51.2198174 16.7387 51.4581567 16.7387 51.6832549 16.7387 51.9215941 16.7387 52.1466923 16.7519612 52.3850316 16.7519612 52.6101298 16.7519612 52.8484691 16.7519612 53.0735673 16.7519612 53.2986655 16.7519612 53.5370048 16.7652223 53.762103 16.7652223 54.0004422 16.7652223 54.2255404 16.7652223 54.4638797 16.7652223 54.6889779 16.7784834 54.9273172 16.7784834 55.1524154 16.7784834 55.3907547 16.7784834 55.6158529 16.7784834 55.8541921 16.7917445 56.0792903 16.7917445 56.3176296 16.7917445 56.5427278 16.7917445 56.7810671 16.8050056 57.0061653 16.8050056 57.2445046 16.8050056 57.4696028 16.8050056 57.694701 16.8182667 57.9330402 16.8182667 58.1581384 16.8182667 58.3964777 16.8315278 58.6215759 16.8315278 58.8599152 16.8315278 59.0850134 16.8447889 59.3233527 16.8447889 59.5484509 16.8447889 59.7867901 16.8580501 60.0118883 16.8580501 60.2502276 16.8580501 60.4753258 16.8713112 60.7136651 16.8713112 60.9387633 16.8713112 61.1771026 16.8845723 61.4022008 16.8845723 61.627299 16.8978334 61.8656383 16.8978334 62.0907365 16.8978334 62.3290757 16.9110945 62.5541739 16.9110945 62.7925132 16.9243556 63.0176114 16.9243556 63.2559507 16.9376167 63.4810489 16.9376167 63.7193882 16.9508778 63.9444864 16.9508778 64.1828256 16.964139 64.4079238 16.964139 64.6462631 16.9774001 64.8713613 16.9774001 65.1097006 16.9906612 65.3347988 16.9906612 65.5731381 17.0039223 65.7982363 17.0171834 66.0233345 17.0171834 66.2616737 17.0304445 66.4867719 17.0437056 66.7251112 17.0437056 66.9502094 17.0569668 67.1885487 17.0702279 67.4136469 17.0702279 67.6519862 17.083489 67.8770844 17.0967501 68.1154236 17.1100112 68.3405218 17.1100112 68.5788611 17.1232723 68.8039593 17.1365334 69.0422986 17.1497945 69.2673968 17.1630557 69.5057361 17.1763168 69.7308343 17.1763168 69.9691735 17.1895779 70.1942717 17.202839 70.4193699 17.2161001 70.6577092 17.2293612 70.8828074 17.2426223 71.1211467 17.2558835 71.3462449 17.2691446 71.5845842 17.2824057 71.8096824 17.2956668 72.0480216 17.322189 72.2731198 17.3354501 72.5114591 17.3487112 72.7365573 17.3619724 72.9748966 17.3752335 73.1999948 17.3884946 73.4383341 17.4150168 73.6634323 17.4282779 73.9017715 17.441539 74.1268697 17.4680613 74.365209 17.4813224 74.5903072 17.4945835 74.8154054 17.5211057 75.0537447 17.5343668 75.2788429 17.5608891 75.5171822 17.5741502 75.7422804 17.6006724 75.9806197 17.6139335 76.2057179 17.6404557 76.4440571 17.666978 76.6691553 17.6802391 76.9074946 17.7067613 77.1325928 17.7332835 77.3709321 17.7598058 77.5960303 17.786328 77.8343696 17.7995891 78.0594678 17.8261113 78.297807 17.8526335 78.5229052 17.8791558 78.7612445 17.905678 78.9863427 17.9454613 79.2114409 17.9719836 79.4497802 17.9985058 79.6748784 18.025028 79.9132177 18.0515502 80.1383159 18.0913336 80.3766551 18.1178558 80.6017533 18.144378 80.8400926 18.1841614 81.0651908 18.2106836 81.3035301 18.2504669 81.5286283 18.2902503 81.7669676 18.3167725 81.9920658 18.3565558 82.230405 18.3963392 82.4555032 18.4361225 82.6938425 18.4759059 82.9189407 18.5156892 83.15728 18.5554725 83.3823782 18.5952559 83.6074764 18.6350392 83.8458157 18.6748226 84.0709139 18.727867 84.3092531 18.7676504 84.5343513 18.8074337 84.7726906 18.8604781 84.9977888 18.9002615 85.2361281 18.9533059 85.4612263 19.0063504 85.6995656 19.0593948 85.9246638 19.1124393 86.163003 19.1654838 86.3881012 19.2185282 86.6264405 19.2715727 86.8515387 19.3246171 87.089878 19.3776616 87.3149762 19.4439671 87.5400744 19.4970116 87.7784137 19.5633171 88.0035119 19.6163616 88.2418511 19.6826672 88.4669494 19.7489727 88.7052886 19.8152783 88.9303868 19.8815839 89.1687261 19.9478894 89.3938243 20.0274561 89.6321636 20.0937617 89.8572618 20.1600672 90.0956011 20.2396339 90.3206993 20.3192006 90.5590385 20.3987673 90.7841367 20.478334 91.022476 20.5579006 91.2475742 20.6374673 91.4859135 20.717034 91.7110117 20.8098618 91.9361099 20.8894285 92.1744492 20.9822563 92.3995474 21.075084 92.6378866 21.1679118 92.8629848 21.2607396 93.1013241 21.3535674 93.3264223 21.4596563 93.5647616 21.5524841 93.7898598 21.658573 94.0281991 21.7646619 94.2532973 21.8707508 94.4916365 21.9768397 94.7167347 22.0829287 94.955074 22.2022787 95.1801722 22.3216287 95.4185115 22.4409787 95.6436097 22.5603287 95.881949 22.6796787 96.1070472 22.7990288 96.3321454 22.9316399 96.5704846 23.064251 96.7955828 23.1968622 97.0339221 23.3294733 97.2590203 23.4620844 97.4973596 23.6079567 97.7224578 23.7405678 97.9607971 23.88644 98.1858953 24.0455734 98.4242345 24.1914456 98.6493327 24.350579 98.887672 24.5097124 99.1127702 24.6688457 99.3511095 24.8279791 99.5762077 25.0003736 99.814547 25.172768 100.039645 25.3451625 100.277984 25.517557 100.503083 25.7032126 100.728181 25.875607 100.96652 26.0745237 101.191618 26.2601793 101.429958 26.459096 101.655056 26.6447516 101.893395 26.8569294 102.118493 27.0558461 102.356833 27.2680239 102.581931 27.4802017 102.82027 27.7056406 103.045368 27.9178185 103.283707 28.1432574 103.508806 28.3819574 103.747145 28.6073963 103.972243 28.8460964 104.210582 29.0980575 104.435681 29.3367576 104.67402 29.6019798 104.899118 29.853941 105.124216 30.1191632 105.362556 30.3843855 105.587654 30.6496078 105.825993 30.9280911 106.051091 31.2065745 106.289431 31.498319 106.514529 31.7900635 106.752868 32.0950691 106.977966 32.4000747 107.216306 32.7050803 107.441404 33.0100859 107.679743 33.3416137 107.904841 33.6598805 108.14318 33.9914083 108.368279 34.3361972 108.606618 34.6809862 108.831716 35.0257751 109.056814 35.3838252 109.295154 35.7418752 109.520252 36.1131864 109.758591 36.4844976 109.983689 36.8690699 110.222029 37.2536421 110.447127 37.6514755 110.685466 38.0493089 110.910564 38.4604034 111.148904 38.8714979 111.374002 39.2958536 111.612341 39.7334703 111.837439 40.171087 112.075778 40.6087038 112.300877 41.0595816 112.539216 41.5237206 112.764314 41.9878595 113.002653 42.4652596 113.227752 42.9559208 113.45285 43.446582 113.691189 43.9372432 113.916287 44.4544266 114.154627 44.97161 114.379725 45.4887934 114.618064 46.019238 114.843162 46.5629436 115.081502 47.1199103 115.3066 47.6768771 115.544939 48.247105 115.770037 48.8173328 116.008376 49.4008218 116.233475 49.9975719 116.471814 50.6075831 116.696912 51.2175943 116.935251 51.8408666 117.16035 52.4774001 117.398689 53.1139335 117.623787 53.7637281 117.848885 54.4267837 118.087225 55.1031005 118.312323 55.7794173 118.550662 56.4689951 118.77576 57.1718341 119.0141 57.8879343 119.239198 58.6040344 119.477537 59.3333956 119.702635 60.0760179 119.940974 60.8319014 120.166073 61.5877848 120.404412 62.3701905 120.62951 63.1525962 120.867849 63.948263 121.092948 64.7439298 121.331287 65.5661188 121.556385 66.3883078 121.794724 67.2370191 122.019823 68.0857303 122.244921 68.9344415 122.48326 69.809675 122.708358 70.6849085 122.946698 71.5866642 123.171796 72.4884199 123.410135 73.4034367 123.635233 74.3317146 123.873572 75.2599925 124.098671 76.2147927 124.33701 77.1695928 124.562108 78.1376541 124.800447 79.1189765 125.025546 80.11356 125.263885 81.1081434 125.488983 82.1292492 125.727322 83.1503549 125.952421 84.1847217 126.19076 85.2323496 126.415858 86.2932387 126.640956 87.3541278 126.879296 88.441539 127.104394 89.5289503 127.342733 90.6296227 127.567831 91.7435562 127.80617 92.8574897 128.031269 93.9979455 128.269608 95.1384012 128.494706 96.292118 128.733045 97.4458349 128.958144 98.626074 129.196483 99.806313 129.421581 100.999813 129.65992 102.193313 129.885019 103.413336 130.123358 104.633358 130.348456 105.853381 130.586795 107.099925 130.811894 108.34647 131.036992 109.606276 131.275331 110.866081 131.500429 112.139148 131.738769 113.425476 131.963867 114.711804 132.202206 116.011393 132.427304 117.324244 132.665643 118.637094 132.890742 119.949944 133.129081 121.276055 133.354179 122.615428 133.592518 123.9548 133.817617 125.307434 134.055956 126.660067 134.281054 128.012701 134.519393 129.378595 134.744492 130.757751 134.96959 132.123646 135.207929 133.516063 135.433027 134.895219 135.671367 136.287635 135.896465 137.680052 136.134804 139.072469 136.359902 140.478147 136.598241 141.883825 136.82334 143.289503 137.061679 144.708442 137.286777 146.11412 137.525116 147.533059 137.750215 148.951999 137.988554 150.370938 138.213652 151.789877 138.451991 153.208816 138.67709 154.641016 138.915429 156.059955 139.140527 157.478894 139.365625 158.911095 139.603965 160.330034 139.829063 161.748973 140.067402 163.167912 140.2925 164.586851 140.530839 166.00579 140.755938 167.424729 140.994277 168.843668 141.219375 170.249346 141.457714 171.655024 141.682813 173.060702 141.921152 174.46638 142.14625 175.858797 142.384589 177.264475 142.609688 178.643631 142.848027 180.036048 143.073125 181.415204 143.311464 182.794359 143.536563 184.160254 143.761661 185.526149 144 186.892043 144.225098 188.244677 144.463437 189.584049 144.688536 190.923422 144.926875 192.262794 145.151973 193.588905 145.390312 194.901756 145.615411 196.214606 145.85375 197.527456 146.078848 198.813784 146.317187 200.113373 146.542286 201.38644 146.780625 202.659507 147.005723 203.919313 147.244062 205.179118 147.469161 206.412402 147.7075 207.658947 147.932598 208.878969 148.157696 210.098991 148.396035 211.292492 148.621134 212.499253 148.859473 213.679492 149.084571 214.859731 149.32291 216.026709 149.548009 217.180426 149.786348 218.320882 150.011446 219.448076 150.249785 220.575271 150.474884 221.689204 150.713223 222.776616 150.938321 223.877288 151.17666 224.951438 151.401759 226.012327 151.640098 227.073216 151.865196 228.107583 152.103535 229.14195 152.328633 230.163056 152.553732 231.1709 152.792071 232.165484 153.017169 233.146806 153.255508 234.114867 153.480607 235.082929 153.718946 236.024468 153.944044 236.966007 154.182383 237.881024 154.407482 238.79604 154.645821 239.697796 154.870919 240.586291 155.109258 241.461524 155.334357 242.323496 155.572696 243.172208 155.797794 244.020919 156.036133 244.843108 156.261231 245.665297 156.48633 246.460964 156.724669 247.256631 156.949767 248.039036 157.188106 248.808181 157.413205 249.564064 157.651544 250.306687 157.876642 251.036048 158.114981 251.752148 158.34008 252.468248 158.578419 253.157826 158.803517 253.847404 159.041856 254.523721 159.266955 255.186776 159.505294 255.836571 159.730392 256.473104 159.968731 257.096377 160.19383 257.719649 160.432169 258.32966 160.657267 258.913149 160.882365 259.496638 161.120704 260.080127 161.345803 260.637094 161.584142 261.194061 161.80924 261.724505 162.047579 262.25495 162.272678 262.772133 162.511017 263.289316 162.736115 263.779978 162.974454 264.270639 163.199553 264.748039 163.437892 265.212178 163.66299 265.676317 163.901329 266.127195 164.126428 266.564811 164.364767 266.989167 164.589865 267.400261 164.828204 267.811356 165.053302 268.209189 165.278401 268.607023 165.51674 268.978334 165.741838 269.349645 165.980177 269.720956 166.205276 270.065745 166.443615 270.410534 166.668713 270.742062 166.907052 271.07359 167.132151 271.391857 167.37049 271.696862 167.595588 272.001868 167.833927 272.293612 168.059026 272.572096 168.297365 272.850579 168.522463 273.115801 168.760802 273.367762 168.9859 273.619724 169.22424 273.858424 169.449338 274.097124 169.674436 274.322563 169.912775 274.548001 170.137874 274.746918 170.376213 274.959096 170.601311 275.158013 170.83965 275.343668 171.064749 275.529324 171.303088 275.701718 171.528186 275.860852 171.766525 276.019985 171.991624 276.179118 172.229963 276.324991 172.455061 276.457602 172.6934 276.590213 172.918498 276.722824 173.156838 276.842174 173.381936 276.948263 173.620275 277.054352 173.845373 277.160441 174.070472 277.253269 174.308811 277.346096 174.533909 277.425663 174.772248 277.491969 174.997347 277.571535 175.235686 277.62458 175.460784 277.690885 175.699123 277.730669 175.924222 277.783713 176.162561 277.823496 176.387659 277.850019 176.625998 277.876541 176.851096 277.903063 177.089436 277.916324 177.314534 277.929585 177.552873 277.942846 177.777971 277.942846 178.016311 277.929585 178.241409 277.916324 178.466507 277.903063 178.704846 277.889802 178.929945 277.86328 179.168284 277.823496 179.393382 277.796974 179.631721 277.757191 179.85682 277.704146 180.095159 277.651102 180.320257 277.598058 180.558596 277.545013 180.783694 277.478708 181.022034 277.412402 181.247132 277.332835 181.485471 277.253269 181.710569 277.173702 181.948909 277.080874 182.174007 276.988046 182.399105 276.895219 182.637444 276.78913 182.862543 276.683041 183.100882 276.576952 183.32598 276.457602 183.564319 276.338252 183.789418 276.218902 184.027757 276.086291 184.252855 275.953679 184.491194 275.821068 184.716293 275.688457 184.954632 275.542585 185.17973 275.383452 185.418069 275.237579 185.643167 275.078446 185.881507 274.919313 186.106605 274.760179 186.344944 274.587785 186.570042 274.41539 186.795141 274.242996 187.03348 274.05734 187.258578 273.871685 187.496917 273.686029 187.722016 273.500374 187.960355 273.301457 188.185453 273.10254 188.423792 272.903623 188.648891 272.691446 188.88723 272.492529 189.112328 272.280351 189.350667 272.054912 189.575765 271.829473 189.814105 271.617295 190.039203 271.378595 190.277542 271.153157 190.50264 270.914456 190.74098 270.675756 190.966078 270.437056 191.191176 270.185095 191.429515 269.946395 191.654614 269.694434 191.892953 269.429212 192.118051 269.177251 192.35639 268.912028 192.581489 268.646806 192.819828 268.381584 193.044926 268.1031 193.283265 267.824617 193.508363 267.546134 193.746703 267.26765 193.971801 266.975906 194.21014 266.684161 194.435238 266.392417 194.673578 266.100672 194.898676 265.795667 195.137015 265.490661 195.362113 265.185656 195.587212 264.88065 195.825551 264.575644 196.050649 264.257378 196.288988 263.939111 196.514087 263.607583 196.752426 263.289316 196.977524 262.957789 197.215863 262.626261 197.440961 262.294733 197.679301 261.949944 197.904399 261.618416 198.142738 261.273627 198.367836 260.928838 198.606176 260.570788 198.831274 260.225999 199.069613 259.867949 199.294711 259.509899 199.533051 259.138588 199.758149 258.780538 199.983247 258.409227 200.221586 258.037916 200.446685 257.666604 200.685024 257.282032 200.910122 256.910721 201.148461 256.526149 201.373559 256.141576 201.611899 255.743743 201.836997 255.359171 202.075336 254.961337 202.300434 254.563504 202.538774 254.165671 202.763872 253.754576 203.002211 253.356743 203.227309 252.945648 203.465649 252.534554 203.690747 252.123459 203.915845 251.699103 204.154184 251.274748 204.379283 250.850392 204.617622 250.426037 204.84272 250.001681 205.081059 249.564064 205.306157 249.139709 205.544497 248.702092 205.769595 248.251214 206.007934 247.813597 206.233032 247.362719 206.471372 246.925103 206.69647 246.474225 206.934809 246.010086 207.159907 245.559208 207.398247 245.095069 207.623345 244.644191 207.861684 244.180052 208.086782 243.702652 208.311881 243.238513 208.55022 242.761113 208.775318 242.296974 209.013657 241.819574 209.238755 241.328913 209.477095 240.851513 209.702193 240.374113 209.940532 239.883452 210.16563 239.39279 210.40397 238.902129 210.629068 238.398207 210.867407 237.907546 211.092505 237.403623 211.330845 236.899701 211.555943 236.395779 211.794282 235.891857 212.01938 235.387934 212.25772 234.870751 212.482818 234.366829 212.707916 233.849645 212.946255 233.332462 213.171354 232.802017 213.409693 232.284834 213.634791 231.754389 213.87313 231.237206 214.098228 230.706761 214.336568 230.176317 214.561666 229.632611 214.800005 229.102167 215.025103 228.558461 215.263443 228.028016 215.488541 227.484311 215.72688 226.940605 215.951978 226.3969 216.190318 225.839933 216.415416 225.296227 216.653755 224.73926 216.878853 224.195555 217.103952 223.638588 217.342291 223.081621 217.567389 222.511393 217.805728 221.954427 218.030826 221.39746 218.269166 220.827232 218.494264 220.257004 218.732603 219.686776 218.957701 219.116548 219.196041 218.546321 219.421139 217.976093 219.659478 217.405865 219.884576 216.822376 220.122916 216.252148 220.348014 215.668659 220.586353 215.08517 220.811451 214.501681 221.049791 213.918192 221.274889 213.334703 221.499987 212.737953 221.738326 212.154464 221.963424 211.570975 222.201764 210.974225 222.426862 210.377475 222.665201 209.780725 222.890299 209.197236 223.128639 208.600486 223.353737 207.990474 223.592076 207.393724 223.817174 206.796974 224.055514 206.200224 224.280612 205.590213 224.518951 204.993463 224.744049 204.383452 224.982389 203.786702 225.207487 203.17669 225.445826 202.566679 225.670924 201.956668 225.896022 201.346657 226.134362 200.736645 226.35946 200.126634 226.597799 199.516623 226.822897 198.906612 227.061237 198.296601 227.286335 197.673328 227.524674 197.063317 227.749772 196.440045 227.988112 195.830034 228.21321 195.220022 228.451549 194.59675 228.676647 193.973478 228.914987 193.363467 229.140085 192.740194 229.378424 192.130183 229.603522 191.506911 229.82862 190.883638 230.06696 190.260366 230.292058 189.650355 230.530397 189.027083 230.755495 188.40381 230.993835 187.780538 231.218933 187.157266 231.457272 186.533993 231.68237 185.923982 231.92071 185.30071 232.145808 184.677437 232.384147 184.054165 232.609245 183.430893 232.847585 182.80762 233.072683 182.184348 233.311022 181.574337 233.53612 180.951065 233.77446 180.327792 233.999558 179.70452 234.224656 179.081248 234.462995 178.471236 234.688093 177.847964 234.926433 177.224692 235.151531 176.601419 235.38987 175.991408 235.614968 175.368136 235.853308 174.758125 236.078406 174.134852 236.316745 173.51158 236.541843 172.901569 236.780183 172.291558 237.005281 171.668285 237.24362 171.058274 237.468718 170.448263 237.707058 169.824991 237.932156 169.214979 238.170495 168.604968 238.395593 167.994957 238.620691 167.384946 238.859031 166.774935 239.084129 166.164923 239.322468 165.554912 239.547566 164.958162 239.785906 164.348151 240.011004 163.751401 240.249343 163.14139 240.474441 162.54464 240.712781 161.934628 240.937879 161.337878 241.176218 160.741128 241.401316 160.144378 241.639656 159.547628 241.864754 158.950878 242.103093 158.354128 242.328191 157.757378 242.566531 157.173889 242.791629 156.577139 243.016727 155.99365 243.255066 155.410161 243.480164 154.813411 243.718504 154.229922 243.943602 153.646433 244.181941 153.076205 244.407039 152.492716 244.645379 151.909227 244.870477 151.338999 245.108816 150.75551 245.333914 150.185282 245.572254 149.615054 245.797352 149.044826 246.035691 148.474598 246.260789 147.904371 246.499129 147.334143 246.724227 146.777176 246.962566 146.206948 247.187664 145.649981 247.412762 145.093015 247.651102 144.536048 247.8762 143.979081 248.114539 143.422114 248.339637 142.878409 248.577977 142.321442 248.803075 141.777736 249.041414 141.234031 249.266512 140.690325 249.504852 140.146619 249.72995 139.602914 249.968289 139.072469 250.193387 138.528764 250.431727 137.998319 250.656825 137.467874 250.895164 136.93743 251.120262 136.406985 251.34536 135.889802 251.5837 135.359357 251.808798 134.842174 252.047137 134.31173 252.272235 133.794546 252.510575 133.290624 252.735673 132.77344 252.974012 132.256257 253.19911 131.752335 253.43745 131.248412 253.662548 130.74449 253.900887 130.240568 254.125985 129.736645 254.364325 129.245984 254.589423 128.742062 254.827762 128.251401 255.05286 127.76074 255.2912 127.270078 255.516298 126.779417 255.741396 126.302017 255.979735 125.824617 256.204833 125.333956 256.443173 124.856556 256.668271 124.392417 256.90661 123.915017 257.131708 123.437617 257.370048 122.973478 257.595146 122.509339 257.833485 122.0452 258.058583 121.581061 258.296923 121.130183 258.522021 120.666044 258.76036 120.215166 258.985458 119.764288 259.223798 119.313411 259.448896 118.862533 259.687235 118.424916 259.912333 117.974038 260.137431 117.536421 260.375771 117.098805 260.600869 116.661188 260.839208 116.236832 261.064306 115.799216 261.302646 115.37486 261.527744 114.950504 261.766083 114.526149 261.991181 114.101793 262.229521 113.690699 262.454619 113.266343 262.692958 112.855248 262.918056 112.444154 263.156396 112.033059 263.381494 111.635226 263.619833 111.224131 263.844931 110.826298 264.08327 110.428465 264.308369 110.030631 264.533467 109.632798 264.771806 109.248226 264.996904 108.850392 265.235244 108.46582 265.460342 108.081248 265.698681 107.696675 265.923779 107.325364 266.162119 106.940792 266.387217 106.569481 266.625556 106.19817 266.850654 105.826858 267.088994 105.455547 267.314092 105.084236 267.552431 104.726186 267.777529 104.368136 268.015868 104.010086 268.240967 103.652036 268.479306 103.293986 268.704404 102.935936 268.929502 102.591147 269.167842 102.246358 269.39294 101.901569 269.631279 101.55678 269.856377 101.211991 270.094717 100.880463 270.319815 100.548935 270.558154 100.204146 270.783252 99.8726186 271.021592 99.5543519 271.24669 99.2228241 271.485029 98.8912962 271.710127 98.5730295 271.948466 98.2547628 272.173565 97.9364961 272.411904 97.6182294 272.637002 97.3132238 272.875341 96.994957 273.10044 96.6899514 273.325538 96.3849458 273.563877 96.0799402 273.788975 95.7749346 274.027315 95.469929 274.252413 95.1781845 274.490752 94.88644 274.71585 94.5814344 274.95419 94.28969 275.179288 94.0112066 275.417627 93.7194621 275.642725 93.4277176 275.881064 93.1492342 276.106163 92.8707508 276.344502 92.5922675 276.5696 92.3137841 276.807939 92.0353007 277.033038 91.7700784 277.258136 91.4915951 277.496475 91.2263728 277.721573 90.9611505 277.959913 90.6959283 278.185011 90.430706 278.42335 90.1654838 278.648448 89.9135226 278.886788 89.6483003 279.111886 89.3963392 279.350225 89.144378 279.575323 88.8924169 279.813662 88.6404557 280.038761 88.4017557 280.2771 88.1497945 280.502198 87.9110945 280.740537 87.6723945 280.965636 87.4336944 281.203975 87.1949944 281.429073 86.9562944 281.654171 86.7175943 281.892511 86.4921554 282.117609 86.2534554 282.355948 86.0280164 282.581046 85.8025775 282.819386 85.5771386 283.044484 85.3516997 283.282823 85.1395219 283.507921 84.9140829 283.746261 84.7019051 283.971359 84.4764662 284.209698 84.2642884 284.434796 84.0521106 284.673135 83.8399328 284.898234 83.6410161 285.136573 83.4288383 285.361671 83.2166604 285.60001 83.0177437 285.825109 82.818827 286.050207 82.6199103 286.288546 82.4209936 286.513644 82.222077 286.751984 82.0231603 286.977082 81.8242436 287.215421 81.638588 287.440519 81.4396713 287.678859 81.2540157 287.903957 81.0683601 288.142296 80.8827045 288.367394 80.6970489 288.605733 80.5113934 288.830832 80.3389989 289.069171 80.1533433 289.294269 79.9809488 289.532608 79.7952932 289.757707 79.6228988 289.996046 79.4505043 290.221144 79.2781098 290.446242 79.1057154 290.684582 78.9333209 290.90968 78.7609264 291.148019 78.6017931 291.373117 78.4293986 291.611457 78.2702652 291.836555 78.1111319 292.074894 77.9519985 292.299992 77.7928651 292.538331 77.6337318 292.76343 77.4745984 293.001769 77.3154651 293.226867 77.1563317 293.465206 77.0104595 293.690305 76.8513261 293.928644 76.7054539 294.153742 76.5595816 294.392081 76.4137094 294.61718 76.2678371 294.842278 76.1219649 295.080617 75.9760926 295.305715 75.8302204 295.544055 75.6843482 295.769153 75.551737 296.007492 75.4058648 296.23259 75.2732536 296.470929 75.1406425 296.696028 74.9947703 296.934367 74.8621591 297.159465 74.729548 297.397804 74.5969369 297.622903 74.4643257 297.861242 74.3449757 298.08634 74.2123646 298.324679 74.0797535 298.549778 73.9604034 298.774876 73.8410534 299.013215 73.7084423 299.238313 73.5890923 299.476653 73.4697422 299.701751 73.3503922 299.94009 73.2310422 300.165188 73.1116922 300.403527 72.9923422 300.628626 72.8729922 300.866965 72.7536421 301.092063 72.6475532 301.330402 72.5282032 301.555501 72.4221143 301.79384 72.3027643 302.018938 72.1966754 302.257277 72.0905865 302.482376 71.9844976 302.720715 71.8784087 302.945813 71.7723198 303.170911 71.6662309 303.409251 71.5601419 303.634349 71.454053 303.872688 71.3479641 304.097786 71.2551363 304.336125 71.1490474 304.561224 71.0562196 304.799563 70.9501307 305.024661 70.857303 305.263 70.751214 305.488099 70.6583863 305.726438 70.5655585 305.951536 70.4727307 306.189875 70.3799029 306.414974 70.2870751 306.653313 70.1942473 306.878411 70.1014195 307.11675 70.0085917 307.341849 69.929025 307.566947 69.8361972 307.805286 69.7433694 308.030384 69.6638028 308.268723 69.570975 308.493822 69.4914083 308.732161 69.4118416 308.957259 69.3190138 309.195598 69.2394471 309.420697 69.1598805 309.659036 69.0803138 309.884134 69.0007471 310.122473 68.9211804 310.347572 68.8416137 310.585911 68.7620471 310.811009 68.6824804 311.049348 68.6029137 311.274447 68.523347 311.512786 68.4570415 311.737884 68.3774748 311.962982 68.2979081 312.201322 68.2316025 312.42642 68.1520359 312.664759 68.0857303 312.889857 68.0194247 313.128196 67.9398581 313.353295 67.8735525 313.591634 67.8072469 313.816732 67.7409414 314.055071 67.6746358 314.28017 67.5950691 314.518509 67.5287635 314.743607 67.462458 314.981946 67.3961524 315.207045 67.343108 315.445384 67.2768024 315.670482 67.2104968 315.908821 67.1441913 316.13392 67.0778857 316.359018 67.0248412 316.597357 66.9585357 316.822455 66.9054912 317.060794 66.8391857 317.285893 66.7861412 317.524232 66.7198356 317.74933 66.6667912 317.987669 66.6004856 318.212768 66.5474412 318.451107 66.4943967 318.676205 66.4413523 318.914544 66.3750467 319.139643 66.3220022 319.377982 66.2689578 319.60308 66.2159133 319.841419 66.1628689 320.066518 66.1098244 320.304857 66.05678 320.529955 66.0037355 320.755053 65.9506911 320.993392 65.8976466 321.218491 65.8446022 321.45683 65.8048188 321.681928 65.7517744 321.920267 65.6987299 322.145366 65.6589466 322.383705 65.6059021 322.608803 65.5528577 322.847142 65.5130743 323.072241 65.4600299 323.31058 65.4202465 323.535678 65.3672021 323.774017 65.3274188 323.999116 65.2743743 324.237455 65.234591 324.462553 65.1948076 324.687651 65.1417632 324.92599 65.1019798 325.151089 65.0621965 325.389428 65.0224131 325.614526 64.9693687 325.852865 64.9295854 326.077964 64.889802 326.316303 64.8500187 326.541401 64.8102353 326.77974 64.770452 327.004839 64.7306687 327.243178 64.6908853 327.468276 64.651102 327.706615 64.6113186 327.931714 64.5715353 328.170053 64.531752 328.395151 64.5052297 328.63349 64.4654464 328.858588 64.4256631 329.083687 64.3858797 329.322026 64.3593575 329.547124 64.3195742 329.785463 64.2797908 330.010562 64.2532686 330.248901 64.2134852 330.473999 64.1737019 330.712338 64.1471797 330.937437 64.1073963 331.175776 64.0808741 331.400874 64.0410908 331.639213 64.0145685 331.864312 63.9747852 332.102651 63.948263 332.327749 63.9084796 332.566088 63.8819574 332.791186 63.8554352 333.029526 63.8156518 333.254624 63.7891296 333.479722 63.7626074 333.718061 63.7360852 333.94316 63.6963018 334.181499 63.6697796 334.406597 63.6432574 334.644936 63.6167352 334.870035 63.5902129 335.108374 63.5504296 335.333472 63.5239074 335.571811 63.4973851 335.79691 63.4708629 336.035249 63.4443407 336.260347 63.4178185 336.498686 63.3912962 336.723785 63.364774 336.962124 63.3382518 337.187222 63.3117295 337.425561 63.2852073 337.650659 63.2586851 337.875758 63.2321629 338.114097 63.2056406 338.339195 63.1923795 338.577534 63.1658573 338.802633 63.1393351 339.040972 63.1128129 339.26607 63.0862906 339.504409 63.0730295 339.729508 63.0465073 339.967847 63.0199851 340.192945 62.9934628 340.431284 62.9802017 340.656383 62.9536795 340.894722 62.9271573 341.11982 62.9138962 341.358159 62.8873739 341.583257 62.8608517 341.821597 62.8475906 342.046695 62.8210684 342.271793 62.8078072 342.510132 62.781285 342.735231 62.7547628 342.97357 62.7415017 343.198668 62.7149795 343.437007 62.7017183 343.662106 62.6751961 343.900445 62.661935 344.125543 62.6354128 344.363882 62.6221517 344.588981 62.6088905 344.82732 62.5823683 345.052418 62.5691072 345.290757 62.542585 345.515855 62.5293239 345.754195 62.5160628 345.979293 62.4895405 346.204391 62.4762794 346.44273 62.4630183 346.667829 62.4364961 346.906168 62.423235 347.131266 62.4099739 347.369605 62.3967127 347.594704 62.3701905 347.833043 62.3569294 348.058141 62.3436683 348.29648 62.3304072 348.521579 62.3038849 348.759918 62.2906238 348.985016 62.2773627 349.223355 62.2641016 349.448453 62.2508405 349.686793 62.2375794 349.911891 62.2110572 350.15023 62.197796 350.375328 62.1845349 350.600427 62.1712738 350.838766 62.1580127 351.063864 62.1447516 351.302203 62.1314905 351.527302 62.1182294 351.765641 62.1049682 351.990739 62.0917071 352.229078 62.078446 352.454177 62.0651849 352.692516 62.0519238 352.917614 62.0386627 353.155953 62.0254016 353.381051 62.0121405 353.619391 61.9988793 353.844489 61.9856182 354.082828 61.9723571 354.307926 61.959096 354.546266 61.9458349 354.771364 61.9325738 354.996462 61.9193127 355.234801 61.9060516 355.4599 61.8927904 355.698239 61.8795293 355.923337 61.8662682 356.161676 61.8662682 356.386775 61.8530071 356.625114 61.839746 356.850212 61.8264849 357.088551 61.8132238 357.313649 61.7999626 357.551989 61.7867015 357.777087 61.7867015 358.015426 61.7734404 358.240524 61.7601793 358.478864 61.7469182 358.703962 61.7469182 358.942301 61.7336571 359.167399 61.720396 359.392498 61.7071349 359.630837 61.6938737 359.855935 61.6938737 360.094274 61.6806126 360.319373 61.6673515 360.557712 61.6673515 360.78281 61.6540904 361.021149 61.6408293 361.246247 61.6275682 361.484587 61.6275682 361.709685 61.6143071 361.948024 61.6010459 362.173122 61.6010459 362.411462 61.5877848 362.63656 61.5745237 362.874899 61.5745237 363.099997 61.5612626 363.338337 61.5480015 363.563435 61.5480015 363.788533 61.5347404 364.026872 61.5347404 364.251971 61.5214793 364.49031 61.5082182 364.715408 61.5082182 364.953747 61.494957 365.178846 61.4816959 365.417185 61.4816959 365.642283 61.4684348 365.880622 61.4684348 366.10572 61.4551737 366.34406 61.4551737 366.569158 61.4419126 366.807497 61.4419126 367.032595 61.4286515 367.270935 61.4153904 367.496033 61.4153904 367.734372 61.4021292 367.95947 61.4021292 368.184569 61.3888681 368.422908 61.3888681 368.648006 61.375607 368.886345 61.375607 369.111444 61.3623459 369.349783 61.3623459 369.574881 61.3490848 369.81322 61.3490848 370.038318 61.3358237 370.276658 61.3358237 370.501756 61.3225626 370.740095 61.3225626 370.965193 61.3093015 371.203533 61.3093015 371.428631 61.3093015 371.66697 61.2960403 371.892068 61.2960403 372.117167 61.2827792 372.355506 61.2827792 372.580604 61.2695181 372.818943 61.2695181 373.044042 61.2695181 373.282381 61.256257 373.507479 61.256257 373.745818 61.2429959 373.970916 61.2429959 374.209256 61.2297348 374.434354 61.2297348 374.672693 61.2297348 374.897791 61.2164737 375.136131 61.2164737 375.361229 61.2164737 375.599568 61.2032126 375.824666 61.2032126 376.063006 61.1899514 376.288104 61.1899514 376.513202 61.1899514 376.751541 61.1766903 376.97664 61.1766903 377.214979 61.1766903 377.440077 61.1634292 377.678416 61.1634292 377.903514 61.1634292 378.141854 61.1501681 378.366952 61.1501681 378.605291 61.1501681 378.830389 61.136907 379.068729 61.136907 379.293827 61.136907 379.532166 61.1236459 379.757264 61.1236459 379.995604 61.1236459 380.220702 61.1103848 380.459041 61.1103848 380.684139 61.1103848 380.909238 61.0971236 381.147577 61.0971236 381.372675 61.0971236 381.611014 61.0971236 381.836112 61.0838625 382.074452 61.0838625 382.29955 61.0838625 382.537889 61.0706014 382.762987 61.0706014 383.001327 61.0706014 383.226425 61.0706014 383.464764 61.0573403 383.689862 61.0573403 383.928202 61.0573403 384.1533 61.0440792 384.391639 61.0440792 384.616737 61.0440792 384.855077 61.0440792 385.080175 61.0308181 385.305273 61.0308181 385.543612 61.0308181 385.76871 61.0308181 386.00705 61.017557 386.232148 61.017557 386.470487 61.017557 386.695585 61.017557 386.933925 61.017557 387.159023 61.0042959 387.397362 61.0042959 387.62246 61.0042959 387.8608 61.0042959 388.085898 60.9910347 388.324237 60.9910347 388.549335 60.9910347 388.787675 60.9910347 389.012773 60.9910347 389.251112 60.9777736 389.47621 60.9777736 389.701308 60.9777736 389.939648 60.9777736 390.164746 60.9777736 390.403085 60.9645125 390.628183 60.9645125 390.866523 60.9645125 391.091621 60.9645125 391.32996 60.9645125 391.555058 60.9512514 391.793398 60.9512514 392.018496 60.9512514 392.256835 60.9512514 392.481933 60.9512514 392.720273 60.9379903 392.945371 60.9379903 393.18371 60.9379903 393.408808 60.9379903 393.633907 60.9379903 393.872246 60.9379903 394.097344 60.9247292 394.335683 60.9247292 394.560781 60.9247292 394.799121 60.9247292 395.024219 60.9247292 395.262558 60.9247292 395.487656 60.9114681 395.725996 60.9114681 395.951094 60.9114681 396.189433 60.9114681 396.414531 60.9114681 396.652871 60.9114681 396.877969 60.8982069 397.116308 60.8982069 397.341406 60.8982069 397.579746 60.8982069 397.804844 60.8982069 398.029942 60.8982069 398.268281 60.8982069 398.493379 60.8849458 398.731719 60.8849458 398.956817 60.8849458 399.195156 60.8849458 399.420254 60.8849458 399.658594 60.8849458 399.883692 60.8849458 400.122031 60.8849458 400.347129 60.8716847 400.585469 60.8716847 400.810567 60.8716847 401.048906 60.8716847 401.274004 60.8716847 401.512344 60.8716847 401.737442 60.8716847 401.975781 60.8716847 402.200879 60.8584236 402.425977 60.8584236 402.664317 60.8584236 402.889415 60.8584236 403.127754 60.8584236 403.352852 60.8584236 403.591192 60.8584236 403.81629 60.8584236 404.054629 60.8451625 404.279727 60.8451625 404.518067 60.8451625 404.743165 60.8451625 404.981504 60.8451625 405.206602 60.8451625 405.444942 60.8451625 405.67004 60.8451625 405.908379 60.8451625 406.133477 60.8451625 406.371817 60.8319014 406.596915 60.8319014 406.822013 60.8319014 407.060352 60.8319014 407.28545 60.8319014 407.52379 60.8319014 407.748888 60.8319014 407.987227 60.8319014 408.212325 60.8319014 408.450665 60.8319014 408.675763 60.8186403 408.914102 60.8186403 409.1392 60.8186403 409.37754 60.8186403 409.602638 60.8186403 409.840977 60.8186403 410.066075 60.8186403 410.304415 60.8186403 410.529513 60.8186403 410.767852 60.8186403 410.99295 60.8186403 411.218048 60.8186403 411.456388 60.8053792 411.681486 60.8053792 411.919825 60.8053792 412.144923 60.8053792 412.383263 60.8053792 412.608361 60.8053792 412.8467 60.8053792 413.071798 60.8053792 413.310138 60.8053792 413.535236 60.8053792 413.773575 60.8053792 413.998673 60.8053792 414.237013 60.8053792 414.462111 60.792118 414.70045 60.792118 414.925548 60.792118 415.163888 60.792118 415.388986 60.792118 415.614084 60.792118 415.852423 60.792118 416.077521 60.792118 416.315861 60.792118 416.540959 60.792118 416.779298 60.792118 417.004396 60.792118 417.242736 60.792118 417.467834 60.792118 417.706173 60.792118 417.931271 60.7788569 418.169611 60.7788569 418.394709 60.7788569 418.633048 60.7788569 418.858146 60.7788569 419.096486 60.7788569 419.321584 60.7788569 419.546682 60.7788569 419.785021 60.7788569 420.010119 60.7788569 420.248459 60.7788569 420.473557 60.7788569 420.711896 60.7788569 420.936994 60.7788569 421.175334 60.7788569 421.400432 60.7788569 421.638771 60.7788569 421.863869 60.7788569 422.102209 60.7655958 422.327307 60.7655958 422.565646 60.7655958 422.790744 60.7655958 423.029084 60.7655958 423.254182 60.7655958 423.492521 60.7655958 423.717619 60.7655958 423.942717 60.7655958 424.181057 60.7655958 424.406155 60.7655958 424.644494 60.7655958 424.869592 60.7655958 425.107932 60.7655958 425.33303 60.7655958 425.571369 60.7655958 425.796467 60.7655958 426.034807 60.7655958 426.259905 60.7655958 426.498244 60.7655958 426.723342 60.7655958 426.961682 60.7655958 427.18678 60.7523347 427.425119 60.7523347 427.650217 60.7523347 427.888556 60.7523347 428.113655 60.7523347 428.338753 60.7523347 428.577092 60.7523347 428.80219 60.7523347 429.04053 60.7523347 429.265628 60.7523347 429.503967 60.7523347 429.729065 60.7523347 429.967405 60.7523347 430.192503 60.7523347 430.430842 60.7523347 430.65594 60.7523347 430.89428 60.7523347 431.119378 60.7523347 431.357717 60.7523347 431.582815 60.7523347 431.821154 60.7523347 432.046253 60.7523347 432.284592 60.7523347 432.50969 60.7523347 432.734788 60.7523347 432.973128 60.7523347 433.198226 60.7523347 433.436565 60.7523347 433.661663 60.7390736 433.900003 60.7390736 434.125101 60.7390736 434.36344 60.7390736 434.588538 60.7390736 434.826878 60.7390736 435.051976 60.7390736 435.290315 60.7390736 435.515413 60.7390736 435.753753 60.7390736 435.978851 60.7390736 436.21719 60.7390736 436.442288 60.7390736 436.680627 60.7390736 436.905726 60.7390736 437.130824 60.7390736 437.369163 60.7390736 437.594261 60.7390736 437.832601 60.7390736 438.057699 60.7390736 438.296038 60.7390736 438.521136 60.7390736 438.759476 60.7390736 438.984574 60.7390736 439.222913 60.7390736 439.448011 60.7390736 439.686351 60.7390736 439.911449 60.7390736 440.149788 60.7390736 440.374886 60.7390736 440.613225 60.7390736 440.838324 60.7390736 441.063422 60.7390736 441.301761 60.7390736 441.526859 60.7390736 441.765199 60.7390736 441.990297 60.7390736 442.228636 60.7390736 442.453734 60.7390736 442.692074 60.7390736 442.917172 60.7258125 443.155511 60.7258125 443.380609 60.7258125 443.618949 60.7258125 443.844047 60.7258125 444.082386 60.7258125 444.307484 60.7258125 444.545823 60.7258125 444.770922 60.7258125 445.009261 60.7258125 445.234359 60.7258125 445.459457 60.7258125 445.697797 60.7258125 445.922895 60.7258125 446.161234 60.7258125 446.386332 60.7258125 446.624672 60.7258125 446.84977 60.7258125 447.088109 60.7258125 447.313207 60.7258125 447.551547 60.7258125 447.776645 60.7258125 448.014984 60.7258125 448.240082 60.7258125 448.478421 60.7258125 448.70352 60.7258125 448.941859 60.7258125 449.166957 60.7258125 449.405296 60.7258125 449.630395 60.7258125 449.855493 60.7258125 450.093832 60.7258125 450.31893 60.7258125 450.55727 60.7258125 450.782368 60.7258125 451.020707 60.7258125 451.245805 60.7258125 451.484145 60.7258125 451.709243 60.7258125 451.947582 60.7258125 452.17268 60.7258125 452.411019 60.7258125 452.636118 60.7258125 452.874457 60.7258125 453.099555 60.7258125 453.337894 60.7258125 453.562993 60.7258125 453.801332 60.7258125 454.02643 60.7258125 454.251528 60.7258125 454.489868 60.7258125 454.714966 60.7258125 454.953305 60.7258125 455.178403 60.7258125 455.416743 60.7258125 455.641841 60.7258125 455.88018 60.7258125 456.105278 60.7258125 456.343617 60.7258125 456.568716 60.7258125 456.807055 60.7258125 457.032153 60.7258125 457.270492 60.7258125 457.495591 60.7258125 457.73393 60.7258125 457.959028 60.7125514 458.197367 60.7125514 458.422466 60.7125514 458.647564 60.7125514 458.885903 60.7125514 459.111001 60.7125514 459.349341 60.7125514 459.574439 60.7125514 459.812778 60.7125514 460.037876 60.7125514 460.276215 60.7125514 460.501314 60.7125514 460.739653 60.7125514 460.964751 60.7125514 461.20309 60.7125514 461.428189 60.7125514 461.666528 60.7125514 461.891626 60.7125514 462.129965 60.7125514 462.355064 60.7125514 462.593403 60.7125514 462.818501 60.7125514 463.043599 60.7125514 463.281939 60.7125514"></polyline>
                    <g id="Rate-parameters" transform="translate(145.9141, 129)">
                        <text id="Rate-(“speed”)" fill-rule="nonzero" font-family="Verdana" font-size="12" font-weight="normal" fill="#000000">
                            <tspan x="28.9033203" y="12">Rate</tspan>
                            <tspan x="13.7919922" y="27">(“speed”)</tspan>
                        </text>
                        <g id="Lambda" transform="translate(0, 40.2053)">
                            <text id="𝜆" fill-rule="nonzero" font-family="STIXTwoMath-Regular, STIX Two Math" font-size="20" font-weight="normal" fill="#000000">
                                <tspan x="9.50962514" y="21.7476394">𝜆</tspan>
                            </text>
                            <g id="Group-2" stroke="#333333">
                                <path d="M0,2.27373675e-13 L1.47837758,8.77161991 C4.52705803,8.07296701 6.4319298,6.90110346 7.19299288,5.25602926 C7.95405596,3.61095506 8.17369054,1.85894531 7.85189664,2.27373675e-13 L0,2.27373675e-13 Z" id="Path-2" fill="#D8D8D8" stroke-dasharray="2,1"></path>
                                <polyline id="Line-2" stroke-linecap="round" points="5.72228638 33.7382826 2.89286136e-17 2.24141909e-14 15.0096251 2.20976906e-15"></polyline>
                            </g>
                        </g>
                        <g id="Phi" transform="translate(61.1109, 39.9436)">
                            <text id="𝜙" fill-rule="nonzero" font-family="STIXTwoMath-Regular, STIX Two Math" font-size="20" font-weight="normal" fill="#000000">
                                <tspan x="0" y="22.0519417">𝜙</tspan>
                            </text>
                            <g id="Group" transform="translate(17.8518, 22.7155) scale(1, -1) translate(-17.8518, -22.7155)translate(8.8048, 0)" stroke="#333333">
                                <path d="M10.4530136,36.2844118 L14.1013958,45.430973 C16.0475204,44.0160338 17.2590892,42.684068 17.7361023,41.4350757 C18.2131153,40.1860833 18.2131153,38.4691953 17.7361023,36.2844118 L10.4530136,36.2844118 Z" id="Path-2-Copy" fill="#D8D8D8" stroke-dasharray="2,1" transform="translate(14.2734, 40.8577) scale(-1, -1) translate(-14.2734, -40.8577)"></path>
                                <polyline id="Line-2-Copy" stroke-linecap="round" transform="translate(9.0469, 22.7155) scale(-1, 1) translate(-9.0469, -22.7155)" points="18.0938621 -6.3475344e-15 7.70252677e-15 45.430973 15.0096251 45.430973"></polyline>
                            </g>
                        </g>
                    </g>
                    <text id="𝛼-+-𝛽(1-–-𝑐)" fill-rule="nonzero" font-family="STIXTwoMath-Regular, STIX Two Math" font-size="20" font-weight="normal" fill="#000000">
                        <tspan x="473.414089" y="66">𝛼 + 𝛽(1 – 𝑐)</tspan>
                    </text>
                </g>
                <g id="Plot-axis" transform="translate(110, 9.166)" fill="#000000" fill-rule="nonzero">
                    <path id="Line" d="M0.5,0.5 L7.5,14.5 L1.5,14.5 L1.5,397.5 L-0.5,397.5 L-0.5,14.5 L-6.5,14.5 L0.5,0.5 Z"></path>
                    <path id="Line-Copy" d="M558.00613,390.987754 L572,398 L557.993881,404.987749 L557.999,398.987 L0.49912511,398.5 L-0.500874508,398.499125 L-0.499124727,396.499125 L0.50087489,396.5 L558,396.987 L558.00613,390.987754 Z"></path>
                </g>
            </g>
        </g>
    </g>
</svg>